<svg xmlns="http://www.w3.org/2000/svg" fill="none" viewBox="0 0 32 32">
  <g filter="url(#bK3kmIerWa)">
    <path d="M2.82 7.797a1.8 1.8 0 011.8-1.8h7.81a2 2 0 011.386.558l2.857 2.748c.42.404.978.629 1.56.629h7.738a1.8 1.8 0 011.8 1.8v8.176l-3.564 9.976H6.82a4 4 0 01-4-4V7.797z" fill="url(#bK3kmIerWb)"/>
  </g>
  <g filter="url(#bK3kmIerWc)">
    <path d="M8.009 15.563c.518-1.407 1.878-2.344 3.403-2.344h14.212c1.162 0 .892 1.104.542 2.191l-1.683 11.692a1.806 1.806 0 01-1.725 1.24H6.66a3.651 3.651 0 01-1.96-.572l-.004-.002c-.186-.21-.711-1.209-.44-1.903L8.01 15.563z" fill="#FCA23D"/>
  </g>
  <g filter="url(#bK3kmIerWd)">
    <path d="M8.3 15.489a4 4 0 013.762-2.64h16.802a1.9 1.9 0 011.811 2.472l-4.163 13.166a2 2 0 01-1.907 1.397H6.808a3.981 3.981 0 01-2.166-.645l-.005-.002a4.023 4.023 0 01-1.315-1.411c.372-.028.566-.212.66-.389L8.3 15.49z" fill="url(#bK3kmIerWe)"/>
  </g>
  <defs>
    <filter id="bK3kmIerWa" x="2.52" y="5.997" width="25.402" height="24.037" filterUnits="userSpaceOnUse" color-interpolation-filters="sRGB">
      <feFlood flood-opacity="0" result="BackgroundImageFix"/>
      <feBlend mode="normal" in="SourceGraphic" in2="BackgroundImageFix" result="shape"/>
      <feColorMatrix in="SourceAlpha" type="matrix" values="0 0 0 0 0 0 0 0 0 0 0 0 0 0 0 0 0 0 127 0" result="hardAlpha"/>
      <feOffset dx="-.3" dy=".15"/>
      <feGaussianBlur stdDeviation=".3"/>
      <feComposite in2="hardAlpha" operator="arithmetic" k2="-1" k3="1"/>
      <feColorMatrix type="matrix" values="0 0 0 0 1 0 0 0 0 0.843137 0 0 0 0 0.360784 0 0 0 1 0"/>
      <feBlend mode="normal" in2="shape" result="effect1_innerShadow_18_22551"/>
      <feColorMatrix in="SourceAlpha" type="matrix" values="0 0 0 0 0 0 0 0 0 0 0 0 0 0 0 0 0 0 127 0" result="hardAlpha"/>
      <feOffset dx=".15" dy=".15"/>
      <feGaussianBlur stdDeviation=".3"/>
      <feComposite in2="hardAlpha" operator="arithmetic" k2="-1" k3="1"/>
      <feColorMatrix type="matrix" values="0 0 0 0 0.933333 0 0 0 0 0.658824 0 0 0 0 0.313726 0 0 0 1 0"/>
      <feBlend mode="normal" in2="effect1_innerShadow_18_22551" result="effect2_innerShadow_18_22551"/>
    </filter>
    <filter id="bK3kmIerWc" x="2.179" y="11.219" width="26.288" height="19.123" filterUnits="userSpaceOnUse" color-interpolation-filters="sRGB">
      <feFlood flood-opacity="0" result="BackgroundImageFix"/>
      <feBlend mode="normal" in="SourceGraphic" in2="BackgroundImageFix" result="shape"/>
      <feGaussianBlur stdDeviation="1" result="effect1_foregroundBlur_18_22551"/>
    </filter>
    <filter id="bK3kmIerWd" x="3.022" y="12.848" width="28.043" height="17.336" filterUnits="userSpaceOnUse" color-interpolation-filters="sRGB">
      <feFlood flood-opacity="0" result="BackgroundImageFix"/>
      <feBlend mode="normal" in="SourceGraphic" in2="BackgroundImageFix" result="shape"/>
      <feColorMatrix in="SourceAlpha" type="matrix" values="0 0 0 0 0 0 0 0 0 0 0 0 0 0 0 0 0 0 127 0" result="hardAlpha"/>
      <feOffset dx=".3" dy=".3"/>
      <feGaussianBlur stdDeviation=".25"/>
      <feComposite in2="hardAlpha" operator="arithmetic" k2="-1" k3="1"/>
      <feColorMatrix type="matrix" values="0 0 0 0 1 0 0 0 0 0.768627 0 0 0 0 0.286275 0 0 0 1 0"/>
      <feBlend mode="normal" in2="shape" result="effect1_innerShadow_18_22551"/>
      <feColorMatrix in="SourceAlpha" type="matrix" values="0 0 0 0 0 0 0 0 0 0 0 0 0 0 0 0 0 0 127 0" result="hardAlpha"/>
      <feOffset dx="-.3" dy=".3"/>
      <feGaussianBlur stdDeviation=".25"/>
      <feComposite in2="hardAlpha" operator="arithmetic" k2="-1" k3="1"/>
      <feColorMatrix type="matrix" values="0 0 0 0 1 0 0 0 0 0.878431 0 0 0 0 0.290196 0 0 0 1 0"/>
      <feBlend mode="normal" in2="effect1_innerShadow_18_22551" result="effect2_innerShadow_18_22551"/>
    </filter>
    <linearGradient id="bK3kmIerWb" x1="7.088" y1="6.687" x2="9.901" y2="16.813" gradientUnits="userSpaceOnUse">
      <stop stop-color="#FFD052"/>
      <stop offset="1" stop-color="#FFBD41"/>
    </linearGradient>
    <linearGradient id="bK3kmIerWe" x1="17.043" y1="12.848" x2="17.043" y2="29.884" gradientUnits="userSpaceOnUse">
      <stop stop-color="#FFDF54"/>
      <stop offset="1" stop-color="#FFBA5F"/>
    </linearGradient>
  </defs>
</svg>
